<?xml version="1.0" encoding="utf-8"?>
<!-- Generator: Adobe Illustrator 27.5.0, SVG Export Plug-In . SVG Version: 6.00 Build 0)  -->
<svg version="1.1" id="Camada_1" xmlns="http://www.w3.org/2000/svg" xmlns:xlink="http://www.w3.org/1999/xlink" x="0px" y="0px"
	 viewBox="0 0 1300 1300" style="enable-background:new 0 0 1300 1300;" xml:space="preserve">
<g>
	<g>
		<g>
			<linearGradient id="SVGID_1_" gradientUnits="userSpaceOnUse" x1="653.2424" y1="518.3453" x2="1011.127" y2="518.3453">
				<stop  offset="0" style="stop-color:#314955"/>
				<stop  offset="0.6228" style="stop-color:#192433"/>
				<stop  offset="1" style="stop-color:#0D1322"/>
			</linearGradient>
			<polygon style="fill:url(#SVGID_1_);" points="653.242,487.575 653.242,208.408 1011.127,828.282 849.95,828.282 			"/>
			
				<linearGradient id="SVGID_00000047017954798081192390000017699631853241436318_" gradientUnits="userSpaceOnUse" x1="295.3578" y1="518.3453" x2="653.2424" y2="518.3453">
				<stop  offset="0" style="stop-color:#314955"/>
				<stop  offset="0.6228" style="stop-color:#192433"/>
				<stop  offset="1" style="stop-color:#0D1322"/>
			</linearGradient>
			<polygon style="fill:url(#SVGID_00000047017954798081192390000017699631853241436318_);" points="456.535,828.282 
				295.358,828.282 653.242,208.408 653.242,487.575 			"/>
			
				<linearGradient id="SVGID_00000060710934817645572790000014690844529628051598_" gradientUnits="userSpaceOnUse" x1="653.2424" y1="828.2824" x2="653.2424" y2="606.4296">
				<stop  offset="0" style="stop-color:#314955"/>
				<stop  offset="0.6228" style="stop-color:#192433"/>
				<stop  offset="1" style="stop-color:#0D1322"/>
			</linearGradient>
			<polygon style="fill:url(#SVGID_00000060710934817645572790000014690844529628051598_);" points="653.242,697.692 
				577.846,828.282 653.242,828.282 728.639,828.282 			"/>
		</g>
		<g>
			
				<linearGradient id="SVGID_00000125579334286678821760000009007889238544686491_" gradientUnits="userSpaceOnUse" x1="824.3408" y1="705.8445" x2="1017.4476" y2="817.3348">
				<stop  offset="0" style="stop-color:#0D1322"/>
				<stop  offset="0.3772" style="stop-color:#192433"/>
				<stop  offset="1" style="stop-color:#314955"/>
			</linearGradient>
			<path style="fill:url(#SVGID_00000125579334286678821760000009007889238544686491_);" d="M905.256,644.909
				c-25.767,41.185-61.335,75.606-103.455,99.977l48.149,83.397h161.177L905.256,644.909z"/>
			
				<linearGradient id="SVGID_00000005961275377999621300000012788492976638032311_" gradientUnits="userSpaceOnUse" x1="357.5183" y1="860.2006" x2="469.2037" y2="666.7559">
				<stop  offset="0" style="stop-color:#314955"/>
				<stop  offset="0.6228" style="stop-color:#192433"/>
				<stop  offset="1" style="stop-color:#0D1322"/>
			</linearGradient>
			<path style="fill:url(#SVGID_00000005961275377999621300000012788492976638032311_);" d="M401.229,644.909L295.358,828.282
				h161.177l48.149-83.397C462.564,720.514,426.995,686.094,401.229,644.909z"/>
			
				<linearGradient id="SVGID_00000016041698800333845760000001353143263569661887_" gradientUnits="userSpaceOnUse" x1="653.2424" y1="780.7757" x2="653.2424" y2="828.2824">
				<stop  offset="0" style="stop-color:#0D1322"/>
				<stop  offset="0.3772" style="stop-color:#192433"/>
				<stop  offset="1" style="stop-color:#314955"/>
			</linearGradient>
			<path style="fill:url(#SVGID_00000016041698800333845760000001353143263569661887_);" d="M605.274,780.776l-27.428,47.507h75.396
				h75.396l-27.428-47.507c-15.617,2.536-31.635,3.875-47.968,3.875C636.909,784.65,620.891,783.311,605.274,780.776z"/>
		</g>
		<g>
			
				<rect x="757.983" y="459.107" transform="matrix(0.866 -0.5 0.5 0.866 -224.043 467.0384)" style="fill:#103C4F;" width="3" height="384.962"/>
			
				<rect x="827.025" y="201.441" transform="matrix(0.866 -0.5 0.5 0.866 -155.0015 485.5381)" style="fill:#103C4F;" width="3" height="661.128"/>
			
				<rect x="147.396" y="530.505" transform="matrix(0.5 -0.866 0.866 0.5 -221.7495 679.9312)" style="fill:#103C4F;" width="661.128" height="3"/>
			
				<rect x="354.521" y="650.089" transform="matrix(0.5001 -0.866 0.866 0.5001 -290.8007 799.4594)" style="fill:#103C4F;" width="384.962" height="3"/>
		</g>
	</g>
	<g>
		<path style="fill:#062332;" d="M304.349,878.039h19.709l41.638,97.85H343.35l-8.883-21.791h-41.083l-8.883,21.791h-21.79
			L304.349,878.039z M326.833,935.222l-12.908-31.506l-12.908,31.506H326.833z"/>
		<path style="fill:#062332;" d="M380.681,878.733h45.108c11.104,0,19.848,3.053,25.399,8.604c4.441,4.441,6.662,9.854,6.662,16.517
			v0.277c0,10.965-5.829,17.072-12.769,20.958c11.242,4.303,18.182,10.826,18.182,23.873v0.277
			c0,17.766-14.435,26.648-36.364,26.648h-46.218V878.733z M421.209,918.012c9.438,0,15.406-3.054,15.406-10.271v-0.278
			c0-6.384-4.997-9.993-14.018-9.993H401.5v20.542H421.209z M426.899,957.151c9.438,0,15.128-3.331,15.128-10.548v-0.278
			c0-6.523-4.857-10.548-15.822-10.548H401.5v21.374H426.899z"/>
		<path style="fill:#062332;" d="M474.222,961.732l12.63-15.128c8.744,7.217,17.904,11.797,29.008,11.797
			c8.744,0,14.018-3.47,14.018-9.16v-0.277c0-5.413-3.331-8.189-19.57-12.352c-19.57-4.997-32.2-10.41-32.2-29.702v-0.277
			c0-17.627,14.157-29.286,34.004-29.286c14.157,0,26.232,4.441,36.086,12.353l-11.104,16.101
			c-8.605-5.969-17.071-9.577-25.26-9.577c-8.189,0-12.492,3.748-12.492,8.467v0.277c0,6.385,4.164,8.467,20.958,12.769
			c19.709,5.135,30.813,12.214,30.813,29.147v0.277c0,19.292-14.712,30.118-35.67,30.118
			C500.732,977.276,485.881,972.142,474.222,961.732z"/>
		<path style="fill:#062332;" d="M590.251,898.441h-29.563v-19.708h80.501v19.708h-29.563v77.447h-21.374V898.441z"/>
		<path style="fill:#062332;" d="M657.563,878.733h44.414c12.352,0,21.929,3.47,28.313,9.854c5.413,5.413,8.327,13.047,8.327,22.207
			v0.278c0,15.684-8.466,25.538-20.818,30.118l23.733,34.698H716.55l-20.819-31.09h-16.794v31.09h-21.374V878.733z M700.588,925.923
			c10.41,0,16.378-5.552,16.378-13.74v-0.278c0-9.16-6.385-13.879-16.794-13.879h-21.235v27.898H700.588z"/>
		<path style="fill:#062332;" d="M791.217,878.039h19.708l41.639,97.85h-22.346l-8.883-21.791h-41.083l-8.883,21.791h-21.791
			L791.217,878.039z M813.701,935.222l-12.908-31.506l-12.908,31.506H813.701z"/>
		<path style="fill:#062332;" d="M857.001,927.589v-0.278c0-27.62,20.818-50.243,50.659-50.243c18.321,0,29.286,6.107,38.308,14.99
			l-13.603,15.684c-7.494-6.801-15.128-10.965-24.844-10.965c-16.378,0-28.175,13.602-28.175,30.257v0.277
			c0,16.655,11.52,30.535,28.175,30.535c11.104,0,17.904-4.441,25.538-11.382l13.602,13.741
			c-9.993,10.687-21.097,17.349-39.833,17.349C878.237,977.554,857.001,955.486,857.001,927.589z"/>
		<path style="fill:#062332;" d="M986.352,898.441h-29.563v-19.708h80.501v19.708h-29.563v77.447h-21.374V898.441z"/>
	</g>
	<g>
		<path style="fill:#A9B0B4;" d="M264.336,1089.573l1.56-3.946c2.478,1.193,4.496,1.743,7.983,1.743
			c4.864,0,8.076-2.845,11.563-11.012l-22.482-46.525h5.23l19.455,41.846l16.885-41.846h4.956l-20.28,48.452
			c-4.13,9.819-8.901,13.307-15.6,13.307C270.025,1091.592,267.455,1090.949,264.336,1089.573z"/>
		<path style="fill:#A9B0B4;" d="M326.916,1053.417v-0.184c0-13.123,10.186-24.502,24.135-24.502
			c13.857,0,23.951,11.195,23.951,24.318v0.184c0,13.123-10.186,24.502-24.135,24.502
			C337.01,1077.735,326.916,1066.539,326.916,1053.417z M370.138,1053.417v-0.184c0-11.287-8.442-20.28-19.271-20.28
			c-11.103,0-19.087,9.085-19.087,20.097v0.184c0,11.287,8.442,20.28,19.271,20.28
			C362.154,1073.514,370.138,1064.429,370.138,1053.417z"/>
		<path style="fill:#A9B0B4;" d="M398.947,1058.464v-28.631h4.497v27.805c0,9.636,5.414,15.968,14.866,15.968
			c9.176,0,16.243-6.975,16.243-16.701v-27.071h4.496v46.801h-4.496v-8.718c-3.12,5.506-8.351,9.819-16.885,9.819
			C405.83,1077.735,398.947,1069.659,398.947,1058.464z"/>
		<path style="fill:#A9B0B4;" d="M467.124,1029.833h4.496v13.306c3.671-8.351,11.471-14.407,20.739-14.04v4.955h-0.459
			c-10.828,0-20.28,8.168-20.28,23.401v19.179h-4.496V1029.833z"/>
		<path style="fill:#A9B0B4;" d="M555.855,1064.612v-30.649h-6.79v-4.13h6.79v-14.958h4.497v14.958h16.426v4.13h-16.426v30.191
			c0,6.699,3.946,9.085,9.36,9.085c2.294,0,4.221-0.459,6.882-1.651v4.221c-2.386,1.102-4.68,1.652-7.616,1.652
			C561.728,1077.46,555.855,1073.514,555.855,1064.612z"/>
		<path style="fill:#A9B0B4;" d="M596.504,1053.325v-0.184c0-13.581,9.544-24.41,22.208-24.41c13.122,0,21.474,10.646,21.474,24.502
			c0,0.826,0,1.102-0.092,1.835h-38.817c0.826,11.654,9.177,18.445,18.354,18.445c7.249,0,12.204-3.212,16.059-7.341l3.12,2.753
			c-4.772,5.139-10.37,8.81-19.363,8.81C607.149,1077.735,596.504,1067.916,596.504,1053.325z M635.321,1051.031
			c-0.643-9.452-6.057-18.17-16.793-18.17c-9.268,0-16.426,7.8-17.252,18.17H635.321z"/>
		<path style="fill:#A9B0B4;" d="M679.089,1055.803l-16.518,20.831h-5.414l19.087-23.859l-18.354-22.941h5.598l15.692,19.821
			l15.876-19.821h5.414l-18.445,22.85l19.18,23.951h-5.598L679.089,1055.803z"/>
		<path style="fill:#A9B0B4;" d="M727.353,1064.612v-30.649h-6.79v-4.13h6.79v-14.958h4.497v14.958h16.426v4.13H731.85v30.191
			c0,6.699,3.945,9.085,9.36,9.085c2.294,0,4.221-0.459,6.882-1.651v4.221c-2.386,1.102-4.68,1.652-7.616,1.652
			C733.226,1077.46,727.353,1073.514,727.353,1064.612z"/>
		<path style="fill:#A9B0B4;" d="M811.128,1009.645h4.497v28.906c3.119-5.506,8.351-9.819,16.885-9.819
			c11.838,0,18.72,8.076,18.72,19.272v28.631h-4.496v-27.806c0-9.635-5.414-15.967-14.866-15.967
			c-9.177,0-16.242,6.975-16.242,16.701v27.071h-4.497V1009.645z"/>
		<path style="fill:#A9B0B4;" d="M875.176,1053.325v-0.184c0-13.581,9.544-24.41,22.208-24.41c13.122,0,21.473,10.646,21.473,24.502
			c0,0.826,0,1.102-0.092,1.835h-38.816c0.825,11.654,9.176,18.445,18.353,18.445c7.25,0,12.205-3.212,16.06-7.341l3.12,2.753
			c-4.772,5.139-10.37,8.81-19.363,8.81C885.821,1077.735,875.176,1067.916,875.176,1053.325z M913.993,1051.031
			c-0.643-9.452-6.057-18.17-16.793-18.17c-9.268,0-16.427,7.8-17.252,18.17H913.993z"/>
		<path style="fill:#A9B0B4;" d="M942.987,1029.833h4.497v13.306c3.67-8.351,11.471-14.407,20.739-14.04v4.955h-0.459
			c-10.829,0-20.28,8.168-20.28,23.401v19.179h-4.497V1029.833z"/>
		<path style="fill:#A9B0B4;" d="M985.196,1053.325v-0.184c0-13.581,9.544-24.41,22.208-24.41c13.122,0,21.473,10.646,21.473,24.502
			c0,0.826,0,1.102-0.092,1.835h-38.816c0.825,11.654,9.176,18.445,18.353,18.445c7.25,0,12.205-3.212,16.06-7.341l3.12,2.753
			c-4.772,5.139-10.37,8.81-19.363,8.81C995.841,1077.735,985.196,1067.916,985.196,1053.325z M1024.013,1051.031
			c-0.643-9.452-6.057-18.17-16.793-18.17c-9.269,0-16.427,7.8-17.252,18.17H1024.013z"/>
	</g>
</g>
</svg>
